<svg xmlns="http://www.w3.org/2000/svg" xmlns:xlink="http://www.w3.org/1999/xlink" contentStyleType="text/css" data-diagram-type="CLASS" height="654px" preserveAspectRatio="none" style="width:452px;height:654px;background:#FFFFFF;" version="1.1" viewBox="0 0 452 654" width="452px" zoomAndPan="magnify"><?plantuml 1.2026.7beta1?><defs/><g><!--class album--><g class="entity" data-qualified-name="album" data-source-line="5" id="ent0001"><rect fill="#F1F1F1" height="113.1875" rx="2.5" ry="2.5" style="stroke:#181818;stroke-width:0.5;" width="181.9893" x="252.89" y="369.67"/><ellipse cx="317.7015" cy="385.67" fill="#ADD1B2" rx="11" ry="11" style="stroke:#181818;stroke-width:1;"/><path d="M321.8109,391.67 L314.0921,391.67 L314.0921,379.2794 L321.8109,379.2794 L321.8109,381.4356 L316.5453,381.4356 L316.5453,384.1075 L321.3109,384.1075 L321.3109,386.2638 L316.5453,386.2638 L316.5453,389.5138 L321.8109,389.5138 L321.8109,391.67 Z " fill="#000000"/><text fill="#000000" font-family="sans-serif" font-size="14" lengthAdjust="spacing" textLength="43.8662" x="338.2015" y="390.5167">album</text><line style="stroke:#181818;stroke-width:0.5;" x1="253.89" x2="433.8793" y1="401.67" y2="401.67"/><g data-visibility-modifier="IE_MANDATORY"><ellipse cx="263.89" cy="415.3184" fill="#000000" rx="3" ry="3" style="stroke:#000000;stroke-width:1;"/></g><text fill="#000000" font-family="sans-serif" font-size="14" lengthAdjust="spacing" textLength="111.2686" x="272.89" y="418.6651">id: integer «PK»</text><line style="stroke:#181818;stroke-width:1;" x1="253.89" x2="433.8793" y1="425.9669" y2="425.9669"/><g data-visibility-modifier="IE_MANDATORY"><ellipse cx="263.89" cy="439.6153" fill="#000000" rx="3" ry="3" style="stroke:#000000;stroke-width:1;"/></g><text fill="#000000" font-family="sans-serif" font-size="14" lengthAdjust="spacing" textLength="102.3955" x="272.89" y="442.962">name: varchar</text><g data-visibility-modifier="IE_MANDATORY"><ellipse cx="263.89" cy="455.9122" fill="#000000" rx="3" ry="3" style="stroke:#000000;stroke-width:1;"/></g><text fill="#000000" font-family="sans-serif" font-size="14" lengthAdjust="spacing" textLength="132.9932" x="272.89" y="459.2589">coverPath: varchar</text><g data-visibility-modifier="IE_MANDATORY"><ellipse cx="263.89" cy="472.2091" fill="#000000" rx="3" ry="3" style="stroke:#000000;stroke-width:1;"/></g><text fill="#000000" font-family="sans-serif" font-size="14" lengthAdjust="spacing" textLength="155.9893" x="272.89" y="475.5557">artist_id integer &lt;FK&gt;</text></g><!--class app_user--><g class="entity" data-qualified-name="app_user" data-source-line="13" id="ent0002"><rect fill="#F1F1F1" height="145.7813" rx="2.5" ry="2.5" style="stroke:#181818;stroke-width:0.5;" width="162.7529" x="29.51" y="353.37"/><ellipse cx="74.6921" cy="369.37" fill="#ADD1B2" rx="11" ry="11" style="stroke:#181818;stroke-width:1;"/><path d="M78.8015,375.37 L71.0828,375.37 L71.0828,362.9794 L78.8015,362.9794 L78.8015,365.1356 L73.5359,365.1356 L73.5359,367.8075 L78.3015,367.8075 L78.3015,369.9638 L73.5359,369.9638 L73.5359,373.2138 L78.8015,373.2138 L78.8015,375.37 Z " fill="#000000"/><text fill="#000000" font-family="sans-serif" font-size="14" lengthAdjust="spacing" textLength="63.8887" x="95.1921" y="374.2167">app_user</text><line style="stroke:#181818;stroke-width:0.5;" x1="30.51" x2="191.2629" y1="385.37" y2="385.37"/><g data-visibility-modifier="IE_MANDATORY"><ellipse cx="40.51" cy="399.0184" fill="#000000" rx="3" ry="3" style="stroke:#000000;stroke-width:1;"/></g><text fill="#000000" font-family="sans-serif" font-size="14" lengthAdjust="spacing" textLength="111.2686" x="49.51" y="402.3651">id: integer «PK»</text><line style="stroke:#181818;stroke-width:1;" x1="30.51" x2="191.2629" y1="409.6669" y2="409.6669"/><g data-visibility-modifier="IE_MANDATORY"><ellipse cx="40.51" cy="423.3153" fill="#000000" rx="3" ry="3" style="stroke:#000000;stroke-width:1;"/></g><text fill="#000000" font-family="sans-serif" font-size="14" lengthAdjust="spacing" textLength="132.9316" x="49.51" y="426.662">username: varchar</text><g data-visibility-modifier="IE_MANDATORY"><ellipse cx="40.51" cy="439.6122" fill="#000000" rx="3" ry="3" style="stroke:#000000;stroke-width:1;"/></g><text fill="#000000" font-family="sans-serif" font-size="14" lengthAdjust="spacing" textLength="129.4043" x="49.51" y="442.9589">password: varchar</text><g data-visibility-modifier="IE_MANDATORY"><ellipse cx="40.51" cy="455.9091" fill="#000000" rx="3" ry="3" style="stroke:#000000;stroke-width:1;"/></g><text fill="#000000" font-family="sans-serif" font-size="14" lengthAdjust="spacing" textLength="101.3018" x="49.51" y="459.2557">email: varchar</text><g data-visibility-modifier="IE_MANDATORY"><ellipse cx="40.51" cy="472.2059" fill="#000000" rx="3" ry="3" style="stroke:#000000;stroke-width:1;"/></g><text fill="#000000" font-family="sans-serif" font-size="14" lengthAdjust="spacing" textLength="136.7529" x="49.51" y="475.5526">first_name: varchar</text><g data-visibility-modifier="IE_MANDATORY"><ellipse cx="40.51" cy="488.5028" fill="#000000" rx="3" ry="3" style="stroke:#000000;stroke-width:1;"/></g><text fill="#000000" font-family="sans-serif" font-size="14" lengthAdjust="spacing" textLength="134.6475" x="49.51" y="491.8495">last_name: varchar</text></g><!--class artist--><g class="entity" data-qualified-name="artist" data-source-line="23" id="ent0003"><rect fill="#F1F1F1" height="80.5938" rx="2.5" ry="2.5" style="stroke:#181818;stroke-width:0.5;" width="137.2686" x="275.25" y="559.16"/><ellipse cx="321.3857" cy="575.16" fill="#ADD1B2" rx="11" ry="11" style="stroke:#181818;stroke-width:1;"/><path d="M325.4951,581.16 L317.7764,581.16 L317.7764,568.7694 L325.4951,568.7694 L325.4951,570.9256 L320.2295,570.9256 L320.2295,573.5975 L324.9951,573.5975 L324.9951,575.7538 L320.2295,575.7538 L320.2295,579.0038 L325.4951,579.0038 L325.4951,581.16 Z " fill="#000000"/><text fill="#000000" font-family="sans-serif" font-size="14" lengthAdjust="spacing" textLength="36.4971" x="341.8857" y="580.0067">artist</text><line style="stroke:#181818;stroke-width:0.5;" x1="276.25" x2="411.5186" y1="591.16" y2="591.16"/><g data-visibility-modifier="IE_MANDATORY"><ellipse cx="286.25" cy="604.8084" fill="#000000" rx="3" ry="3" style="stroke:#000000;stroke-width:1;"/></g><text fill="#000000" font-family="sans-serif" font-size="14" lengthAdjust="spacing" textLength="111.2686" x="295.25" y="608.1551">id: integer «PK»</text><line style="stroke:#181818;stroke-width:1;" x1="276.25" x2="411.5186" y1="615.4569" y2="615.4569"/><g data-visibility-modifier="IE_MANDATORY"><ellipse cx="286.25" cy="629.1053" fill="#000000" rx="3" ry="3" style="stroke:#000000;stroke-width:1;"/></g><text fill="#000000" font-family="sans-serif" font-size="14" lengthAdjust="spacing" textLength="102.3955" x="295.25" y="632.452">name: varchar</text></g><!--class playlist--><g class="entity" data-qualified-name="playlist" data-source-line="29" id="ent0004"><rect fill="#F1F1F1" height="113.1875" rx="2.5" ry="2.5" style="stroke:#181818;stroke-width:0.5;" width="207.7676" x="7" y="163.89"/><ellipse cx="81.5322" cy="179.89" fill="#ADD1B2" rx="11" ry="11" style="stroke:#181818;stroke-width:1;"/><path d="M85.6416,185.89 L77.9229,185.89 L77.9229,173.4994 L85.6416,173.4994 L85.6416,175.6556 L80.376,175.6556 L80.376,178.3275 L85.1416,178.3275 L85.1416,180.4838 L80.376,180.4838 L80.376,183.7338 L85.6416,183.7338 L85.6416,185.89 Z " fill="#000000"/><text fill="#000000" font-family="sans-serif" font-size="14" lengthAdjust="spacing" textLength="50.2031" x="102.0322" y="184.7367">playlist</text><line style="stroke:#181818;stroke-width:0.5;" x1="8" x2="213.7676" y1="195.89" y2="195.89"/><g data-visibility-modifier="IE_MANDATORY"><ellipse cx="18" cy="209.5384" fill="#000000" rx="3" ry="3" style="stroke:#000000;stroke-width:1;"/></g><text fill="#000000" font-family="sans-serif" font-size="14" lengthAdjust="spacing" textLength="111.2686" x="27" y="212.8851">id: integer «PK»</text><line style="stroke:#181818;stroke-width:1;" x1="8" x2="213.7676" y1="220.1869" y2="220.1869"/><g data-visibility-modifier="IE_MANDATORY"><ellipse cx="18" cy="233.8353" fill="#000000" rx="3" ry="3" style="stroke:#000000;stroke-width:1;"/></g><text fill="#000000" font-family="sans-serif" font-size="14" lengthAdjust="spacing" textLength="102.3955" x="27" y="237.182">name: varchar</text><g data-visibility-modifier="IE_MANDATORY"><ellipse cx="18" cy="250.1322" fill="#000000" rx="3" ry="3" style="stroke:#000000;stroke-width:1;"/></g><text fill="#000000" font-family="sans-serif" font-size="14" lengthAdjust="spacing" textLength="140.4375" x="27" y="253.4789">cover_path: varchar</text><g data-visibility-modifier="IE_MANDATORY"><ellipse cx="18" cy="266.4291" fill="#000000" rx="3" ry="3" style="stroke:#000000;stroke-width:1;"/></g><text fill="#000000" font-family="sans-serif" font-size="14" lengthAdjust="spacing" textLength="181.7676" x="27" y="269.7757">app_user_id: integer «FK»</text></g><!--class playlist_song--><g class="entity" data-qualified-name="playlist_song" data-source-line="37" id="ent0005"><rect fill="#F1F1F1" height="80.5938" rx="2.5" ry="2.5" style="stroke:#181818;stroke-width:0.5;" width="225.124" x="114.32" y="7"/><ellipse cx="177.2209" cy="23" fill="#ADD1B2" rx="11" ry="11" style="stroke:#181818;stroke-width:1;"/><path d="M181.3303,29 L173.6115,29 L173.6115,16.6094 L181.3303,16.6094 L181.3303,18.7656 L176.0646,18.7656 L176.0646,21.4375 L180.8303,21.4375 L180.8303,23.5938 L176.0646,23.5938 L176.0646,26.8438 L181.3303,26.8438 L181.3303,29 Z " fill="#000000"/><text fill="#000000" font-family="sans-serif" font-size="14" lengthAdjust="spacing" textLength="90.8223" x="197.7209" y="27.8467">playlist_song</text><line style="stroke:#181818;stroke-width:0.5;" x1="115.32" x2="338.444" y1="39" y2="39"/><g data-visibility-modifier="IE_MANDATORY"><ellipse cx="125.32" cy="52.6484" fill="#000000" rx="3" ry="3" style="stroke:#000000;stroke-width:1;"/></g><text fill="#000000" font-family="sans-serif" font-size="14" lengthAdjust="spacing" textLength="182.54" x="134.32" y="55.9951">song_id: number «PK, FK»</text><g data-visibility-modifier="IE_MANDATORY"><ellipse cx="125.32" cy="68.9453" fill="#000000" rx="3" ry="3" style="stroke:#000000;stroke-width:1;"/></g><text fill="#000000" font-family="sans-serif" font-size="14" lengthAdjust="spacing" textLength="199.124" x="134.32" y="72.292">playlist_id: number «PK, FK»</text><line style="stroke:#181818;stroke-width:0.5;" x1="115.32" x2="338.444" y1="79.5938" y2="79.5938"/></g><!--class song--><g class="entity" data-qualified-name="song" data-source-line="42" id="ent0006"><rect fill="#F1F1F1" height="145.7813" rx="2.5" ry="2.5" style="stroke:#181818;stroke-width:0.5;" width="187.7451" x="250.01" y="147.59"/><ellipse cx="322.823" cy="163.59" fill="#ADD1B2" rx="11" ry="11" style="stroke:#181818;stroke-width:1;"/><path d="M326.9324,169.59 L319.2136,169.59 L319.2136,157.1994 L326.9324,157.1994 L326.9324,159.3556 L321.6667,159.3556 L321.6667,162.0275 L326.4324,162.0275 L326.4324,164.1837 L321.6667,164.1837 L321.6667,167.4337 L326.9324,167.4337 L326.9324,169.59 Z " fill="#000000"/><text fill="#000000" font-family="sans-serif" font-size="14" lengthAdjust="spacing" textLength="33.6191" x="343.323" y="168.4367">song</text><line style="stroke:#181818;stroke-width:0.5;" x1="251.01" x2="436.7551" y1="179.59" y2="179.59"/><g data-visibility-modifier="IE_MANDATORY"><ellipse cx="261.01" cy="193.2384" fill="#000000" rx="3" ry="3" style="stroke:#000000;stroke-width:1;"/></g><text fill="#000000" font-family="sans-serif" font-size="14" lengthAdjust="spacing" textLength="111.2686" x="270.01" y="196.5851">id: integer «PK»</text><line style="stroke:#181818;stroke-width:1;" x1="251.01" x2="436.7551" y1="203.8869" y2="203.8869"/><g data-visibility-modifier="IE_MANDATORY"><ellipse cx="261.01" cy="217.5353" fill="#000000" rx="3" ry="3" style="stroke:#000000;stroke-width:1;"/></g><text fill="#000000" font-family="sans-serif" font-size="14" lengthAdjust="spacing" textLength="102.3955" x="270.01" y="220.882">name: varchar</text><g data-visibility-modifier="IE_MANDATORY"><ellipse cx="261.01" cy="233.8322" fill="#000000" rx="3" ry="3" style="stroke:#000000;stroke-width:1;"/></g><text fill="#000000" font-family="sans-serif" font-size="14" lengthAdjust="spacing" textLength="103.4346" x="270.01" y="237.1789">genre: varchar</text><g data-visibility-modifier="IE_MANDATORY"><ellipse cx="261.01" cy="250.1291" fill="#000000" rx="3" ry="3" style="stroke:#000000;stroke-width:1;"/></g><text fill="#000000" font-family="sans-serif" font-size="14" lengthAdjust="spacing" textLength="108.9854" x="270.01" y="253.4757">length: decimal</text><g data-visibility-modifier="IE_MANDATORY"><ellipse cx="261.01" cy="266.4259" fill="#000000" rx="3" ry="3" style="stroke:#000000;stroke-width:1;"/></g><text fill="#000000" font-family="sans-serif" font-size="14" lengthAdjust="spacing" textLength="140.3145" x="270.01" y="269.7726">audio_path: varchar</text><g data-visibility-modifier="IE_MANDATORY"><ellipse cx="261.01" cy="282.7228" fill="#000000" rx="3" ry="3" style="stroke:#000000;stroke-width:1;"/></g><text fill="#000000" font-family="sans-serif" font-size="14" lengthAdjust="spacing" textLength="161.7451" x="270.01" y="286.0695">album_id: integer «FK»</text></g><!--link song to album--><g class="link" data-entity-1="ent0006" data-entity-2="ent0001" data-link-type="crowfoot" data-source-line="52" id="lnk7"><path codeLine="52" d="M343.88,301.62 C343.88,326.46 343.88,337.9 343.88,361.26" fill="none" id="song-album" style="stroke:#181818;stroke-width:1;stroke-dasharray:7,7;"/><line style="stroke:#181818;stroke-width:1;" x1="343.88" x2="337.88" y1="301.62" y2="293.62"/><line style="stroke:#181818;stroke-width:1;" x1="343.88" x2="349.88" y1="301.62" y2="293.62"/><line style="stroke:#181818;stroke-width:1;" x1="343.88" x2="343.88" y1="301.62" y2="293.62"/><line style="stroke:#181818;stroke-width:1;" x1="339.88" x2="347.88" y1="303.62" y2="303.62"/><line style="stroke:#181818;stroke-width:1;" x1="347.88" x2="339.88" y1="365.26" y2="365.26"/><line style="stroke:#181818;stroke-width:1;" x1="347.88" x2="339.88" y1="362.26" y2="362.26"/><line style="stroke:#181818;stroke-width:1;" x1="343.88" x2="343.88" y1="361.26" y2="369.26"/></g><!--link album to artist--><g class="link" data-entity-1="ent0001" data-entity-2="ent0003" data-link-type="crowfoot" data-source-line="53" id="lnk8"><path codeLine="53" d="M343.88,491.32 C343.88,515.99 343.88,528.39 343.88,550.81" fill="none" id="album-artist" style="stroke:#181818;stroke-width:1;stroke-dasharray:7,7;"/><line style="stroke:#181818;stroke-width:1;" x1="343.88" x2="337.88" y1="491.32" y2="483.32"/><line style="stroke:#181818;stroke-width:1;" x1="343.88" x2="349.88" y1="491.32" y2="483.32"/><line style="stroke:#181818;stroke-width:1;" x1="343.88" x2="343.88" y1="491.32" y2="483.32"/><line style="stroke:#181818;stroke-width:1;" x1="339.88" x2="347.88" y1="493.32" y2="493.32"/><line style="stroke:#181818;stroke-width:1;" x1="347.88" x2="339.88" y1="554.81" y2="554.81"/><line style="stroke:#181818;stroke-width:1;" x1="347.88" x2="339.88" y1="551.81" y2="551.81"/><line style="stroke:#181818;stroke-width:1;" x1="343.88" x2="343.88" y1="550.81" y2="558.81"/></g><!--link playlist_song to song--><g class="link" data-entity-1="ent0005" data-entity-2="ent0006" data-link-type="crowfoot" data-source-line="55" id="lnk9"><path codeLine="55" d="M264.1747,102.8621 C276.2547,120.5421 276.204,120.4665 290.114,140.8065" fill="none" id="playlist_song-song" style="stroke:#181818;stroke-width:1;stroke-dasharray:7,7;"/><line style="stroke:#181818;stroke-width:1;" x1="258.5332" x2="249.066" y1="94.6054" y2="91.3849"/><line style="stroke:#181818;stroke-width:1;" x1="258.5332" x2="258.974" y1="94.6054" y2="84.6151"/><line style="stroke:#181818;stroke-width:1;" x1="258.5332" x2="254.02" y1="94.6054" y2="88"/><ellipse cx="261.9181" cy="99.5594" fill="none" rx="4" ry="4" style="stroke:#181818;stroke-width:1;"/><line style="stroke:#181818;stroke-width:1;" x1="295.6738" x2="289.0703" y1="141.8503" y2="146.3662"/><line style="stroke:#181818;stroke-width:1;" x1="293.9803" x2="287.3768" y1="139.374" y2="143.8899"/><line style="stroke:#181818;stroke-width:1;" x1="290.114" x2="294.63" y1="140.8065" y2="147.41"/></g><!--link playlist_song to playlist--><g class="link" data-entity-1="ent0005" data-entity-2="ent0004" data-link-type="crowfoot" data-source-line="56" id="lnk10"><path codeLine="56" d="M189.8837,102.9018 C174.6937,125.3218 170.0371,132.1869 153.3371,156.8369" fill="none" id="playlist_song-playlist" style="stroke:#181818;stroke-width:1;stroke-dasharray:7,7;"/><line style="stroke:#181818;stroke-width:1;" x1="195.4928" x2="195.0127" y1="94.623" y2="84.6346"/><line style="stroke:#181818;stroke-width:1;" x1="195.4928" x2="204.9473" y1="94.623" y2="91.3654"/><line style="stroke:#181818;stroke-width:1;" x1="195.4928" x2="199.98" y1="94.623" y2="88"/><ellipse cx="192.1273" cy="99.5903" fill="none" rx="4" ry="4" style="stroke:#181818;stroke-width:1;"/><line style="stroke:#181818;stroke-width:1;" x1="154.4051" x2="147.782" y1="162.392" y2="157.9049"/><line style="stroke:#181818;stroke-width:1;" x1="156.0878" x2="149.4646" y1="159.9083" y2="155.4212"/><line style="stroke:#181818;stroke-width:1;" x1="153.3371" x2="148.85" y1="156.8369" y2="163.46"/></g><!--link playlist to app_user--><g class="link" data-entity-1="ent0004" data-entity-2="ent0002" data-link-type="crowfoot" data-source-line="57" id="lnk11"><path codeLine="57" d="M110.88,295.44 C110.88,318.77 110.88,320.16 110.88,344.99" fill="none" id="playlist-app_user" style="stroke:#181818;stroke-width:1;stroke-dasharray:7,7;"/><line style="stroke:#181818;stroke-width:1;" x1="110.88" x2="104.88" y1="285.44" y2="277.44"/><line style="stroke:#181818;stroke-width:1;" x1="110.88" x2="116.88" y1="285.44" y2="277.44"/><line style="stroke:#181818;stroke-width:1;" x1="110.88" x2="110.88" y1="285.44" y2="277.44"/><ellipse cx="110.88" cy="291.44" fill="none" rx="4" ry="4" style="stroke:#181818;stroke-width:1;"/><line style="stroke:#181818;stroke-width:1;" x1="114.88" x2="106.88" y1="348.99" y2="348.99"/><line style="stroke:#181818;stroke-width:1;" x1="114.88" x2="106.88" y1="345.99" y2="345.99"/><line style="stroke:#181818;stroke-width:1;" x1="110.88" x2="110.88" y1="344.99" y2="352.99"/></g><?plantuml-src dL9DZuCW5BppAxWrQLQzcyQZbrxw3yohi4h2Lm2xQLR_-mghjIgRRFH0PEOnp9j7TaAjSzhcMQOvIDS9djPAP8mcX45ZGA1JXX2LZhad1dxl1Fv6UFpEc94SC-beGms-N6xNeWX4aaoy145p_01Jjs0ch5OFQcxWsYq1nZ7hAaOMoV9Qe66vM-kgioF-t-jzSSo21ck_b25Rd0fWV0j-CZEwYibms15lPaCt1vDQPCQHFFbneRV8AntBV8gqMikMNdPleh9ADYydVXFEoKxS9pSVk9mTdPTZyQ95VoLxfC66IhCV3vMDxvZGcWdWSySTOIgUXN_QVmJX7GvzclPzg49XdO0mQ8HM8GtAK_ulXi_GY_k5vs7y0000?></g></svg>