<svg xmlns="http://www.w3.org/2000/svg" xmlns:xlink="http://www.w3.org/1999/xlink" contentStyleType="text/css" data-diagram-type="SEQUENCE" height="511px" preserveAspectRatio="none" style="width:685px;height:511px;background:#FFFFFF;" version="1.1" viewBox="0 0 685 511" width="685px" zoomAndPan="magnify"><?plantuml 1.2026.7beta1?><defs/><g><rect fill="none" height="140.7969" style="stroke:#000000;stroke-width:1.5;" width="468.9702" x="77.9292" y="171.6953"/><g class="participant-lifeline" data-entity-uid="part1" data-qualified-name="user" data-source-line="5" id="part1-lifeline"><g><title>User</title><rect fill="#000000" fill-opacity="0.00000" height="347.5938" width="8" x="23.9551" y="81.2969"/><line style="stroke:#181818;stroke-width:0.5;stroke-dasharray:5,5;" x1="27" x2="27" y1="81.2969" y2="428.8906"/></g></g><g class="participant-lifeline" data-entity-uid="part2" data-qualified-name="frontend" data-source-line="6" id="part2-lifeline"><g><title>Frontend</title><rect fill="#000000" fill-opacity="0.00000" height="347.5938" width="8" x="118.4839" y="81.2969"/><line style="stroke:#181818;stroke-width:0.5;stroke-dasharray:5,5;" x1="121.9292" x2="121.9292" y1="81.2969" y2="428.8906"/></g></g><g class="participant-lifeline" data-entity-uid="part3" data-qualified-name="storage" data-source-line="7" id="part3-lifeline"><g><title>Storage</title><rect fill="#000000" fill-opacity="0.00000" height="347.5938" width="8" x="237.8384" y="81.2969"/><line style="stroke:#181818;stroke-width:0.5;stroke-dasharray:5,5;" x1="241.4502" x2="241.4502" y1="81.2969" y2="428.8906"/></g></g><g class="participant-lifeline" data-entity-uid="part4" data-qualified-name="backend" data-source-line="8" id="part4-lifeline"><g><title>Backend</title><rect fill="#000000" fill-opacity="0.00000" height="347.5938" width="8" x="416.918" y="81.2969"/><line style="stroke:#181818;stroke-width:0.5;stroke-dasharray:5,5;" x1="420.7373" x2="420.7373" y1="81.2969" y2="428.8906"/></g></g><g class="participant-lifeline" data-entity-uid="part5" data-qualified-name="database" data-source-line="9" id="part5-lifeline"><g><title>Database</title><rect fill="#000000" fill-opacity="0.00000" height="347.5938" width="8" x="496.499" y="81.2969"/><line style="stroke:#181818;stroke-width:0.5;stroke-dasharray:5,5;" x1="500.0986" x2="500.0986" y1="81.2969" y2="428.8906"/></g></g><g class="participant-lifeline" data-entity-uid="part6" data-qualified-name="search" data-source-line="10" id="part6-lifeline"><g><title>Search</title><rect fill="#000000" fill-opacity="0.00000" height="347.5938" width="8" x="576.1021" y="81.2969"/><line style="stroke:#181818;stroke-width:0.5;stroke-dasharray:5,5;" x1="579.8994" x2="579.8994" y1="81.2969" y2="428.8906"/></g></g><g class="participant participant-head" data-entity-uid="part1" data-qualified-name="user" data-source-line="5" id="part1-head"><text fill="#000000" font-family="sans-serif" font-size="14" lengthAdjust="spacing" textLength="31.9102" x="9" y="77.9951">User</text><ellipse cx="27.9551" cy="13.5" fill="#E2E2F0" rx="8" ry="8" style="stroke:#181818;stroke-width:0.5;"/><path d="M27.9551,21.5 L27.9551,48.5 M14.9551,29.5 L40.9551,29.5 M27.9551,48.5 L14.9551,63.5 M27.9551,48.5 L40.9551,63.5" fill="none" style="stroke:#181818;stroke-width:0.5;"/></g><g class="participant participant-tail" data-entity-uid="part1" data-qualified-name="user" data-source-line="5" id="part1-tail"><text fill="#000000" font-family="sans-serif" font-size="14" lengthAdjust="spacing" textLength="31.9102" x="9" y="440.8857">User</text><ellipse cx="27.9551" cy="452.6875" fill="#E2E2F0" rx="8" ry="8" style="stroke:#181818;stroke-width:0.5;"/><path d="M27.9551,460.6875 L27.9551,487.6875 M14.9551,468.6875 L40.9551,468.6875 M27.9551,487.6875 L14.9551,502.6875 M27.9551,487.6875 L40.9551,502.6875" fill="none" style="stroke:#181818;stroke-width:0.5;"/></g><g class="participant participant-head" data-entity-uid="part2" data-qualified-name="frontend" data-source-line="6" id="part2-head"><text fill="#000000" font-family="sans-serif" font-size="14" lengthAdjust="spacing" textLength="63.1094" x="87.9292" y="77.9951">Frontend</text><ellipse cx="122.4839" cy="49" fill="#E2E2F0" rx="12" ry="12" style="stroke:#181818;stroke-width:0.5;"/><line style="stroke:#181818;stroke-width:0.5;" x1="110.4839" x2="134.4839" y1="63" y2="63"/></g><g class="participant participant-tail" data-entity-uid="part2" data-qualified-name="frontend" data-source-line="6" id="part2-tail"><text fill="#000000" font-family="sans-serif" font-size="14" lengthAdjust="spacing" textLength="63.1094" x="87.9292" y="440.8857">Frontend</text><ellipse cx="122.4839" cy="460.1875" fill="#E2E2F0" rx="12" ry="12" style="stroke:#181818;stroke-width:0.5;"/><line style="stroke:#181818;stroke-width:0.5;" x1="110.4839" x2="134.4839" y1="474.1875" y2="474.1875"/></g><g class="participant participant-head" data-entity-uid="part3" data-qualified-name="storage" data-source-line="7" id="part3-head"><text fill="#000000" font-family="sans-serif" font-size="14" lengthAdjust="spacing" textLength="54.7764" x="211.4502" y="77.9951">Storage</text><path d="M223.8384,29 C223.8384,19 241.8384,19 241.8384,19 C241.8384,19 259.8384,19 259.8384,29 L259.8384,55 C259.8384,65 241.8384,65 241.8384,65 C241.8384,65 223.8384,65 223.8384,55 L223.8384,29" fill="#E2E2F0" style="stroke:#181818;stroke-width:0.5;"/><path d="M223.8384,29 C223.8384,39 241.8384,39 241.8384,39 C241.8384,39 259.8384,39 259.8384,29" fill="none" style="stroke:#181818;stroke-width:0.5;"/></g><g class="participant participant-tail" data-entity-uid="part3" data-qualified-name="storage" data-source-line="7" id="part3-tail"><text fill="#000000" font-family="sans-serif" font-size="14" lengthAdjust="spacing" textLength="54.7764" x="211.4502" y="440.8857">Storage</text><path d="M223.8384,454.1875 C223.8384,444.1875 241.8384,444.1875 241.8384,444.1875 C241.8384,444.1875 259.8384,444.1875 259.8384,454.1875 L259.8384,480.1875 C259.8384,490.1875 241.8384,490.1875 241.8384,490.1875 C241.8384,490.1875 223.8384,490.1875 223.8384,480.1875 L223.8384,454.1875" fill="#E2E2F0" style="stroke:#181818;stroke-width:0.5;"/><path d="M223.8384,454.1875 C223.8384,464.1875 241.8384,464.1875 241.8384,464.1875 C241.8384,464.1875 259.8384,464.1875 259.8384,454.1875" fill="none" style="stroke:#181818;stroke-width:0.5;"/></g><g class="participant participant-head" data-entity-uid="part4" data-qualified-name="backend" data-source-line="8" id="part4-head"><text fill="#000000" font-family="sans-serif" font-size="14" lengthAdjust="spacing" textLength="60.3613" x="387.7373" y="77.9951">Backend</text><path d="M400.418,37 L400.418,61 M400.418,49 L417.418,49" fill="none" style="stroke:#181818;stroke-width:0.5;"/><ellipse cx="429.418" cy="49" fill="#E2E2F0" rx="12" ry="12" style="stroke:#181818;stroke-width:0.5;"/></g><g class="participant participant-tail" data-entity-uid="part4" data-qualified-name="backend" data-source-line="8" id="part4-tail"><text fill="#000000" font-family="sans-serif" font-size="14" lengthAdjust="spacing" textLength="60.3613" x="387.7373" y="440.8857">Backend</text><path d="M400.418,448.1875 L400.418,472.1875 M400.418,460.1875 L417.418,460.1875" fill="none" style="stroke:#181818;stroke-width:0.5;"/><ellipse cx="429.418" cy="460.1875" fill="#E2E2F0" rx="12" ry="12" style="stroke:#181818;stroke-width:0.5;"/></g><g class="participant participant-head" data-entity-uid="part5" data-qualified-name="database" data-source-line="9" id="part5-head"><text fill="#000000" font-family="sans-serif" font-size="14" lengthAdjust="spacing" textLength="66.8008" x="464.0986" y="77.9951">Database</text><path d="M482.499,29 C482.499,19 500.499,19 500.499,19 C500.499,19 518.499,19 518.499,29 L518.499,55 C518.499,65 500.499,65 500.499,65 C500.499,65 482.499,65 482.499,55 L482.499,29" fill="#E2E2F0" style="stroke:#181818;stroke-width:0.5;"/><path d="M482.499,29 C482.499,39 500.499,39 500.499,39 C500.499,39 518.499,39 518.499,29" fill="none" style="stroke:#181818;stroke-width:0.5;"/></g><g class="participant participant-tail" data-entity-uid="part5" data-qualified-name="database" data-source-line="9" id="part5-tail"><text fill="#000000" font-family="sans-serif" font-size="14" lengthAdjust="spacing" textLength="66.8008" x="464.0986" y="440.8857">Database</text><path d="M482.499,454.1875 C482.499,444.1875 500.499,444.1875 500.499,444.1875 C500.499,444.1875 518.499,444.1875 518.499,454.1875 L518.499,480.1875 C518.499,490.1875 500.499,490.1875 500.499,490.1875 C500.499,490.1875 482.499,490.1875 482.499,480.1875 L482.499,454.1875" fill="#E2E2F0" style="stroke:#181818;stroke-width:0.5;"/><path d="M482.499,454.1875 C482.499,464.1875 500.499,464.1875 500.499,464.1875 C500.499,464.1875 518.499,464.1875 518.499,454.1875" fill="none" style="stroke:#181818;stroke-width:0.5;"/></g><g class="participant participant-head" data-entity-uid="part6" data-qualified-name="search" data-source-line="10" id="part6-head"><rect fill="#E2E2F0" height="30.2969" style="stroke:#181818;stroke-width:0.5;" width="62.4053" x="550.8994" y="46"/><rect fill="#E2E2F0" height="30.2969" style="stroke:#181818;stroke-width:0.5;" width="62.4053" x="546.8994" y="50"/><text fill="#000000" font-family="sans-serif" font-size="14" lengthAdjust="spacing" textLength="48.4053" x="553.8994" y="69.9951">Search</text></g><g class="participant participant-tail" data-entity-uid="part6" data-qualified-name="search" data-source-line="10" id="part6-tail"><rect fill="#E2E2F0" height="30.2969" style="stroke:#181818;stroke-width:0.5;" width="62.4053" x="550.8994" y="427.8906"/><rect fill="#E2E2F0" height="30.2969" style="stroke:#181818;stroke-width:0.5;" width="62.4053" x="546.8994" y="431.8906"/><text fill="#000000" font-family="sans-serif" font-size="14" lengthAdjust="spacing" textLength="48.4053" x="553.8994" y="451.8857">Search</text></g><g class="message" data-entity-1="part1" data-entity-2="part2" data-source-line="12" id="msg1"><polygon fill="#181818" points="110.4839,108.4297,120.4839,112.4297,110.4839,116.4297,114.4839,112.4297" style="stroke:#181818;stroke-width:1;stroke-linejoin:miter;stroke-miterlimit:10;"/><line style="stroke:#181818;stroke-width:1;" x1="27.9551" x2="116.4839" y1="112.4297" y2="112.4297"/><text fill="#000000" font-family="sans-serif" font-size="13" lengthAdjust="spacing" textLength="70.5288" x="34.9551" y="107.3638">Interaction</text></g><g class="message" data-entity-1="part2" data-entity-2="part3" data-source-line="13" id="msg2"><polygon fill="#181818" points="229.8384,152.6953,239.8384,156.6953,229.8384,160.6953,233.8384,156.6953" style="stroke:#181818;stroke-width:1;stroke-linejoin:miter;stroke-miterlimit:10;"/><line style="stroke:#181818;stroke-width:1;" x1="122.4839" x2="235.8384" y1="156.6953" y2="156.6953"/><text fill="#000000" font-family="sans-serif" font-size="13" lengthAdjust="spacing" textLength="95.3545" x="129.4839" y="136.4966">Fetches image</text><text fill="#000000" font-family="sans-serif" font-size="13" lengthAdjust="spacing" textLength="83.7065" x="129.4839" y="151.6294">&amp; audio data</text></g><path d="M77.9292,171.6953 L314.1206,171.6953 L314.1206,178.8281 L304.1206,188.8281 L77.9292,188.8281 L77.9292,171.6953" fill="#EEEEEE" style="stroke:#000000;stroke-width:1.5;"/><rect fill="none" height="140.7969" style="stroke:#000000;stroke-width:1.5;" width="468.9702" x="77.9292" y="171.6953"/><text fill="#000000" font-family="sans-serif" font-size="13" font-weight="700" lengthAdjust="spacing" textLength="191.1914" x="92.9292" y="184.7622">Backend CRUD operations</text><g class="message" data-entity-1="part5" data-entity-2="part2" data-source-line="16" id="msg3"><polygon fill="#181818" points="133.4839,205.9609,123.4839,209.9609,133.4839,213.9609,129.4839,209.9609" style="stroke:#181818;stroke-width:1;stroke-linejoin:miter;stroke-miterlimit:10;"/><line style="stroke:#181818;stroke-width:1;" x1="127.4839" x2="499.499" y1="209.9609" y2="209.9609"/><text fill="#000000" font-family="sans-serif" font-size="13" lengthAdjust="spacing" textLength="168.8413" x="139.4839" y="204.895">Retrieves audio metadata</text></g><g class="message" data-entity-1="part4" data-entity-2="part3" data-source-line="17" id="msg4"><polygon fill="#181818" points="252.8384,250.2266,242.8384,254.2266,252.8384,258.2266,248.8384,254.2266" style="stroke:#181818;stroke-width:1;stroke-linejoin:miter;stroke-miterlimit:10;"/><line style="stroke:#181818;stroke-width:1;" x1="246.8384" x2="419.918" y1="254.2266" y2="254.2266"/><text fill="#000000" font-family="sans-serif" font-size="13" lengthAdjust="spacing" textLength="155.0796" x="258.8384" y="234.0278">Uploads custom playlist</text><text fill="#000000" font-family="sans-serif" font-size="13" lengthAdjust="spacing" textLength="103.3018" x="262.9707" y="249.1606">image cover art</text></g><path d="M306,267.2266 L306,307.2266 L535,307.2266 L535,277.2266 L525,267.2266 L306,267.2266" fill="#FEFFDD" style="stroke:#181818;stroke-width:0.5;"/><path d="M525,267.2266 L525,277.2266 L535,277.2266 L525,267.2266" fill="#FEFFDD" style="stroke:#181818;stroke-width:0.5;"/><text fill="#000000" font-family="sans-serif" font-size="13" lengthAdjust="spacing" textLength="163.7886" x="312" y="284.2935">Involve retrieving\editing</text><text fill="#000000" font-family="sans-serif" font-size="13" lengthAdjust="spacing" textLength="208.4126" x="312" y="299.4263">account info &amp; music metadata.</text><g class="message" data-entity-1="part6" data-entity-2="part2" data-source-line="24" id="msg5"><polygon fill="#181818" points="133.4839,336.625,123.4839,340.625,133.4839,344.625,129.4839,340.625" style="stroke:#181818;stroke-width:1;stroke-linejoin:miter;stroke-miterlimit:10;"/><line style="stroke:#181818;stroke-width:1;" x1="127.4839" x2="579.1021" y1="340.625" y2="340.625"/><text fill="#000000" font-family="sans-serif" font-size="13" lengthAdjust="spacing" textLength="253.5571" x="139.4839" y="335.5591">Provides searching ability for database</text></g><path d="M485,353.625 L485,378.625 L674,378.625 L674,363.625 L664,353.625 L485,353.625" fill="#FEFFDD" style="stroke:#181818;stroke-width:0.5;"/><path d="M664,353.625 L664,363.625 L674,363.625 L664,353.625" fill="#FEFFDD" style="stroke:#181818;stroke-width:0.5;"/><text fill="#000000" font-family="sans-serif" font-size="13" lengthAdjust="spacing" textLength="168.543" x="491" y="370.6919">Is interacted via backend.</text><path d="M5,388.7578 L5,413.7578 L604,413.7578 L604,398.7578 L594,388.7578 L5,388.7578" fill="#FEFFDD" style="stroke:#181818;stroke-width:0.5;"/><path d="M594,388.7578 L594,398.7578 L604,398.7578 L594,388.7578" fill="#FEFFDD" style="stroke:#181818;stroke-width:0.5;"/><text fill="#000000" font-family="sans-serif" font-size="13" lengthAdjust="spacing" textLength="335.0039" x="132.6504" y="405.8247">All Crud operations can be found via OpenAPI spec.</text><?plantuml-src LP8zRmCX38Pt_mfFxPHSvmoL-g5AcHgrofR51qw2oi6LZvFwxslWxjgmW8tz-CMckuThIcFSTPtIRlEm7Isvb0UxLNxe8dzdTeetsj0bq03t7G2fv0EsTOoy794YPZ61NJBff_dUWdU9dPxlpxC9cXBr5BduFmL75ruOiPdG--mqXGfw9lKrKqf8tymRokk_iuGiLw2yjQoIyIxY9rDGrrLjh2P0KOsRnrNT3lUo1wfPi7XBnAnjXs-Sr9KZca7Caxj3ojhuMXNW4dmULyql7yTNzAFmgWWenLVXDrK_E0N3as0RRU14bLXIvZVVg3YErfEEgBAu1fJH_LWJqyarNQZy92-Za2h1-SHOFKl_YdVl9cydnj2A6tSviJP9zdfDIiaS4XftzdY7Guv6hSAsDQIeAcmeI6XDlNtO8VZ9Q5uwBcoatjZoIyxobTPP_IcSHxEN3i-ZO8sJeKNw5jQgBOjKy372axNu4hB-rt1KvB1dgIJ_gJBUHtPFXpt6aTKVw1S0?></g></svg>