<svg xmlns="http://www.w3.org/2000/svg" xmlns:xlink="http://www.w3.org/1999/xlink" contentStyleType="text/css" data-diagram-type="CLASS" height="703px" preserveAspectRatio="none" style="width:416px;height:703px;background:#FFFFFF;" version="1.1" viewBox="0 0 416 703" width="416px" zoomAndPan="magnify"><?plantuml 1.2026.3beta6?><defs/><g><!--class song--><g class="entity" data-qualified-name="song" data-source-line="1" id="ent0002"><rect fill="#F1F1F1" height="162.0781" rx="2.5" ry="2.5" style="stroke:#181818;stroke-width:0.5;" width="166.376" x="136.37" y="7"/><ellipse cx="198.4984" cy="23" fill="#ADD1B2" rx="11" ry="11" style="stroke:#181818;stroke-width:1;"/><path d="M202.6078,29 L194.889,29 L194.889,16.6094 L202.6078,16.6094 L202.6078,18.7656 L197.3422,18.7656 L197.3422,21.4375 L202.1078,21.4375 L202.1078,23.5938 L197.3422,23.5938 L197.3422,26.8438 L202.6078,26.8438 L202.6078,29 Z " fill="#000000"/><text fill="#000000" font-family="sans-serif" font-size="14" lengthAdjust="spacing" textLength="33.6191" x="218.9984" y="27.8467">song</text><line style="stroke:#181818;stroke-width:0.5;" x1="137.37" x2="301.746" y1="39" y2="39"/><text fill="#000000" font-family="sans-serif" font-size="14" lengthAdjust="spacing" textLength="111.2686" x="142.37" y="55.9951">id: integer «PK»</text><line style="stroke:#181818;stroke-width:1;" x1="137.37" x2="301.746" y1="63.2969" y2="63.2969"/><text fill="#000000" font-family="sans-serif" font-size="14" lengthAdjust="spacing" textLength="102.3955" x="142.37" y="80.292">name: varchar</text><text fill="#000000" font-family="sans-serif" font-size="14" lengthAdjust="spacing" textLength="154.376" x="142.37" y="96.5889">artist_id: integer «FK»</text><text fill="#000000" font-family="sans-serif" font-size="14" lengthAdjust="spacing" textLength="103.4346" x="142.37" y="112.8857">genre: varchar</text><text fill="#000000" font-family="sans-serif" font-size="14" lengthAdjust="spacing" textLength="108.9854" x="142.37" y="129.1826">length: decimal</text><text fill="#000000" font-family="sans-serif" font-size="14" lengthAdjust="spacing" textLength="140.4375" x="142.37" y="145.4795">cover_path: varchar</text><text fill="#000000" font-family="sans-serif" font-size="14" lengthAdjust="spacing" textLength="140.3145" x="142.37" y="161.7764">audio_path: varchar</text></g><!--class playlist--><g class="entity" data-qualified-name="playlist" data-source-line="12" id="ent0003"><rect fill="#F1F1F1" height="96.8906" rx="2.5" ry="2.5" style="stroke:#181818;stroke-width:0.5;" width="193.7676" x="15.68" y="385.97"/><ellipse cx="83.2122" cy="401.97" fill="#ADD1B2" rx="11" ry="11" style="stroke:#181818;stroke-width:1;"/><path d="M87.3216,407.97 L79.6029,407.97 L79.6029,395.5794 L87.3216,395.5794 L87.3216,397.7356 L82.056,397.7356 L82.056,400.4075 L86.8216,400.4075 L86.8216,402.5637 L82.056,402.5637 L82.056,405.8137 L87.3216,405.8137 L87.3216,407.97 Z " fill="#000000"/><text fill="#000000" font-family="sans-serif" font-size="14" lengthAdjust="spacing" textLength="50.2031" x="103.7122" y="406.8167">playlist</text><line style="stroke:#181818;stroke-width:0.5;" x1="16.68" x2="208.4476" y1="417.97" y2="417.97"/><text fill="#000000" font-family="sans-serif" font-size="14" lengthAdjust="spacing" textLength="111.2686" x="21.68" y="434.9651">id: integer «PK»</text><line style="stroke:#181818;stroke-width:1;" x1="16.68" x2="208.4476" y1="442.2669" y2="442.2669"/><text fill="#000000" font-family="sans-serif" font-size="14" lengthAdjust="spacing" textLength="181.7676" x="21.68" y="459.262">app_user_id: integer «FK»</text><text fill="#000000" font-family="sans-serif" font-size="14" lengthAdjust="spacing" textLength="102.3955" x="21.68" y="475.5589">name: varchar</text></g><!--class playlist_song--><g class="entity" data-qualified-name="playlist_song" data-source-line="19" id="ent0004"><rect fill="#F1F1F1" height="80.5938" rx="2.5" ry="2.5" style="stroke:#181818;stroke-width:0.5;" width="211.124" x="7" y="237.23"/><ellipse cx="62.9009" cy="253.23" fill="#ADD1B2" rx="11" ry="11" style="stroke:#181818;stroke-width:1;"/><path d="M67.0103,259.23 L59.2915,259.23 L59.2915,246.8394 L67.0103,246.8394 L67.0103,248.9956 L61.7446,248.9956 L61.7446,251.6675 L66.5103,251.6675 L66.5103,253.8237 L61.7446,253.8237 L61.7446,257.0737 L67.0103,257.0737 L67.0103,259.23 Z " fill="#000000"/><text fill="#000000" font-family="sans-serif" font-size="14" lengthAdjust="spacing" textLength="90.8223" x="83.4009" y="258.0767">playlist_song</text><line style="stroke:#181818;stroke-width:0.5;" x1="8" x2="217.124" y1="269.23" y2="269.23"/><text fill="#000000" font-family="sans-serif" font-size="14" lengthAdjust="spacing" textLength="182.54" x="13" y="286.2251">song_id: number «PK, FK»</text><text fill="#000000" font-family="sans-serif" font-size="14" lengthAdjust="spacing" textLength="199.124" x="13" y="302.522">playlist_id: number «PK, FK»</text><line style="stroke:#181818;stroke-width:0.5;" x1="8" x2="217.124" y1="309.8237" y2="309.8237"/></g><!--class artist--><g class="entity" data-qualified-name="artist" data-source-line="24" id="ent0005"><rect fill="#F1F1F1" height="96.8906" rx="2.5" ry="2.5" style="stroke:#181818;stroke-width:0.5;" width="148.7529" x="253.19" y="229.08"/><ellipse cx="305.0679" cy="245.08" fill="#ADD1B2" rx="11" ry="11" style="stroke:#181818;stroke-width:1;"/><path d="M309.1773,251.08 L301.4586,251.08 L301.4586,238.6894 L309.1773,238.6894 L309.1773,240.8456 L303.9117,240.8456 L303.9117,243.5175 L308.6773,243.5175 L308.6773,245.6737 L303.9117,245.6737 L303.9117,248.9237 L309.1773,248.9237 L309.1773,251.08 Z " fill="#000000"/><text fill="#000000" font-family="sans-serif" font-size="14" lengthAdjust="spacing" textLength="36.4971" x="325.5679" y="249.9267">artist</text><line style="stroke:#181818;stroke-width:0.5;" x1="254.19" x2="400.9429" y1="261.08" y2="261.08"/><text fill="#000000" font-family="sans-serif" font-size="14" lengthAdjust="spacing" textLength="111.2686" x="259.19" y="278.0751">id: integer «PK»</text><line style="stroke:#181818;stroke-width:1;" x1="254.19" x2="400.9429" y1="285.3769" y2="285.3769"/><text fill="#000000" font-family="sans-serif" font-size="14" lengthAdjust="spacing" textLength="136.7529" x="259.19" y="302.372">first_name: varchar</text><text fill="#000000" font-family="sans-serif" font-size="14" lengthAdjust="spacing" textLength="134.6475" x="259.19" y="318.6689">last_name: varchar</text></g><!--class app_user--><g class="entity" data-qualified-name="app_user" data-source-line="31" id="ent0006"><rect fill="#F1F1F1" height="145.7813" rx="2.5" ry="2.5" style="stroke:#181818;stroke-width:0.5;" width="148.7529" x="38.19" y="542.86"/><ellipse cx="76.9789" cy="558.86" fill="#ADD1B2" rx="11" ry="11" style="stroke:#181818;stroke-width:1;"/><path d="M81.0883,564.86 L73.3695,564.86 L73.3695,552.4694 L81.0883,552.4694 L81.0883,554.6256 L75.8227,554.6256 L75.8227,557.2975 L80.5883,557.2975 L80.5883,559.4538 L75.8227,559.4538 L75.8227,562.7038 L81.0883,562.7038 L81.0883,564.86 Z " fill="#000000"/><text fill="#000000" font-family="sans-serif" font-size="14" lengthAdjust="spacing" textLength="63.8887" x="96.2653" y="563.7067">app_user</text><line style="stroke:#181818;stroke-width:0.5;" x1="39.19" x2="185.9429" y1="574.86" y2="574.86"/><text fill="#000000" font-family="sans-serif" font-size="14" lengthAdjust="spacing" textLength="111.2686" x="44.19" y="591.8551">id: integer «PK»</text><line style="stroke:#181818;stroke-width:1;" x1="39.19" x2="185.9429" y1="599.1569" y2="599.1569"/><text fill="#000000" font-family="sans-serif" font-size="14" lengthAdjust="spacing" textLength="132.9316" x="44.19" y="616.152">username: varchar</text><text fill="#000000" font-family="sans-serif" font-size="14" lengthAdjust="spacing" textLength="129.4043" x="44.19" y="632.4489">password: varchar</text><text fill="#000000" font-family="sans-serif" font-size="14" lengthAdjust="spacing" textLength="101.3018" x="44.19" y="648.7457">email: varchar</text><text fill="#000000" font-family="sans-serif" font-size="14" lengthAdjust="spacing" textLength="136.7529" x="44.19" y="665.0426">first_name: varchar</text><text fill="#000000" font-family="sans-serif" font-size="14" lengthAdjust="spacing" textLength="134.6475" x="44.19" y="681.3395">last_name: varchar</text></g><!--link song to playlist_song--><g class="link" data-entity-1="ent0002" data-entity-2="ent0004" data-link-type="crowfoot" data-source-line="41" id="lnk7"><path codeLine="41" d="M169.7551,176.3083 C156.4251,199.6683 150.3753,210.2619 139.1553,229.9219" fill="none" id="song-playlist_song" style="stroke:#181818;stroke-width:1;"/><line style="stroke:#181818;stroke-width:1;" x1="169.7551" x2="168.5088" y1="176.3083" y2="166.3863"/><line style="stroke:#181818;stroke-width:1;" x1="169.7551" x2="178.9312" y1="176.3083" y2="172.3337"/><line style="stroke:#181818;stroke-width:1;" x1="169.7551" x2="173.72" y1="176.3083" y2="169.36"/><line style="stroke:#181818;stroke-width:1;" x1="165.2897" x2="172.238" y1="176.0629" y2="180.0279"/><line style="stroke:#181818;stroke-width:1;" x1="140.6467" x2="133.6986" y1="235.3786" y2="231.4133"/><line style="stroke:#181818;stroke-width:1;" x1="142.1337" x2="135.1856" y1="232.773" y2="228.8077"/><line style="stroke:#181818;stroke-width:1;" x1="139.1553" x2="135.19" y1="229.9219" y2="236.87"/></g><!--link song to artist--><g class="link" data-entity-1="ent0002" data-entity-2="ent0005" data-link-type="crowfoot" data-source-line="42" id="lnk8"><path codeLine="42" d="M269.8246,176.2913 C281.4546,196.4713 285.5785,203.6269 295.9585,221.6569" fill="none" id="song-artist" style="stroke:#181818;stroke-width:1;"/><line style="stroke:#181818;stroke-width:1;" x1="269.8246" x2="260.6315" y1="176.2913" y2="172.356"/><line style="stroke:#181818;stroke-width:1;" x1="269.8246" x2="271.0285" y1="176.2913" y2="166.364"/><line style="stroke:#181818;stroke-width:1;" x1="269.8246" x2="265.83" y1="176.2913" y2="169.36"/><line style="stroke:#181818;stroke-width:1;" x1="267.3576" x2="274.2889" y1="180.0214" y2="176.0268"/><line style="stroke:#181818;stroke-width:1;" x1="301.4208" x2="294.4877" y1="223.1277" y2="227.1192"/><line style="stroke:#181818;stroke-width:1;" x1="299.924" x2="292.9909" y1="220.5278" y2="224.5192"/><line style="stroke:#181818;stroke-width:1;" x1="295.9585" x2="299.95" y1="221.6569" y2="228.59"/></g><!--link playlist_song to playlist--><g class="link" data-entity-1="ent0004" data-entity-2="ent0003" data-link-type="crowfoot" data-source-line="43" id="lnk9"><path codeLine="43" d="M112.56,326.01 C112.56,346.62 112.56,356.01 112.56,377.71" fill="none" id="playlist_song-playlist" style="stroke:#181818;stroke-width:1;"/><line style="stroke:#181818;stroke-width:1;" x1="112.56" x2="106.56" y1="326.01" y2="318.01"/><line style="stroke:#181818;stroke-width:1;" x1="112.56" x2="118.56" y1="326.01" y2="318.01"/><line style="stroke:#181818;stroke-width:1;" x1="112.56" x2="112.56" y1="326.01" y2="318.01"/><line style="stroke:#181818;stroke-width:1;" x1="108.56" x2="116.56" y1="328.01" y2="328.01"/><line style="stroke:#181818;stroke-width:1;" x1="116.56" x2="108.56" y1="381.71" y2="381.71"/><line style="stroke:#181818;stroke-width:1;" x1="116.56" x2="108.56" y1="378.71" y2="378.71"/><line style="stroke:#181818;stroke-width:1;" x1="112.56" x2="112.56" y1="377.71" y2="385.71"/></g><!--link playlist to app_user--><g class="link" data-entity-1="ent0003" data-entity-2="ent0006" data-link-type="crowfoot" data-source-line="46" id="lnk10"><path codeLine="46" d="M112.56,501 C112.56,519.26 112.56,514.54 112.56,534.6" fill="none" id="playlist-app_user" style="stroke:#181818;stroke-width:1;stroke-dasharray:7,7;"/><line style="stroke:#181818;stroke-width:1;" x1="112.56" x2="106.56" y1="491" y2="483"/><line style="stroke:#181818;stroke-width:1;" x1="112.56" x2="118.56" y1="491" y2="483"/><line style="stroke:#181818;stroke-width:1;" x1="112.56" x2="112.56" y1="491" y2="483"/><ellipse cx="112.56" cy="497" fill="none" rx="4" ry="4" style="stroke:#181818;stroke-width:1;"/><line style="stroke:#181818;stroke-width:1;" x1="116.56" x2="108.56" y1="538.6" y2="538.6"/><line style="stroke:#181818;stroke-width:1;" x1="116.56" x2="108.56" y1="535.6" y2="535.6"/><line style="stroke:#181818;stroke-width:1;" x1="112.56" x2="112.56" y1="534.6" y2="542.6"/></g><?plantuml-src bP3DReCm48JlVWhVSYd97KKvzf9BNw126zY09MDRjaaK5TuznloK3Qb4kHXzwvbP3oel_8CxhKh-mtZuH95oeJoMQFdn-7K-dI9EadWeg37bDx1v1JOIi5uudr7PvoGhKTaNWKHL-Yhb1UQY1XbPhczeCmCz9-PD8VGBxnZ3OMiZuI53-ARDmPYiSI7bZqtfozOXsQAZ_ZVwgAQ-Z6aVVBQQ9U-l_7eFtMrQ_ofiC5pNBs655_xZcpSbz1VN_WQSksjRK8er24dH_nRi6-pQ96bRqk-23zqmCgOAnWuxEluEuudi3hEsq_jzC1pBU080?></g></svg>